<svg xmlns="http://www.w3.org/2000/svg" viewBox="-111.88 29.75 565.88 105.5" role="img" aria-label="Sonical">
  <defs>
    <linearGradient id="sMark" gradientUnits="userSpaceOnUse" x1="295" y1="428" x2="529" y2="828">
      <stop offset="0" stop-color="#a855f7"/>
      <stop offset="1" stop-color="#ff8a00"/>
    </linearGradient>
  </defs>
  <g transform="translate(-120.0625,21.5625) scale(0.24375) matrix(1,0,0,1.0010114,-111.59169,-378.24999)" fill="url(#sMark)">
    <path d="m 408.47608,427.8173 -61.72038,36.02514 -185.16401,108.07405 63.27951,36.9343 189.83574,110.80288 61.72185,-36.02514 -189.83718,-110.80291 123.44075,-72.05029 0.001,-2e-5 189.83577,110.80291 61.72182,-36.02515 z"/>
    <path d="M 414.7073,827.41315 476.42768,791.388 661.59169,683.31396 598.31218,646.37966 408.47644,535.57677 l -61.72185,36.02515 189.83718,110.80291 -123.44075,72.05028 -0.001,3e-5 -189.83577,-110.80291 -61.72182,36.02514 z"/>
  </g>
  <path fill="#fbf3ea" transform="scale(1.0552352,0.94765602)" d="m 71.783152,52.761832 q 5.571752,0 9.22221,1.152776 3.650459,1.056712 5.763882,3.2662 2.113424,2.113424 2.881941,5.283559 0.864582,3.170135 0.864582,7.300917 v 5.667817 h -8.261563 v -5.283559 q 0,-2.785876 -0.480324,-4.70717 -0.480323,-2.017359 -1.729165,-3.170135 -1.248841,-1.248841 -3.266199,-1.729164 -1.921294,-0.576389 -4.995364,-0.576389 H 66.01927 q -2.978006,0 -4.995365,0.576389 -2.017358,0.480323 -3.266199,1.729164 -1.152777,1.152776 -1.6331,3.170135 -0.480324,1.921294 -0.480324,4.70717 v 2.017359 q 0,2.689811 0.384259,4.515041 0.480324,1.825229 1.537035,3.07407 1.152777,1.248841 3.074071,2.017359 1.921294,0.768517 4.899299,1.248841 l 6.916658,1.056711 q 5.187494,0.864583 8.645823,2.209488 3.458329,1.344906 5.475688,3.45833 2.113423,2.113423 2.978006,5.187493 0.864582,2.978006 0.864582,7.300916 v 2.11342 q 0,4.13079 -0.864582,7.30092 -0.768518,3.17014 -2.881941,5.37962 -2.113424,2.11343 -5.763882,3.2662 -3.554394,1.05672 -9.126146,1.05672 H 66.01927 q -5.571753,0 -9.222211,-1.05672 -3.554394,-1.15277 -5.667817,-3.2662 -2.113424,-2.20948 -2.978006,-5.37962 -0.768518,-3.17013 -0.768518,-7.30092 v -5.667813 h 8.261564 v 5.283563 q 0,5.57175 2.209488,7.8773 2.209488,2.30555 8.1655,2.30555 h 5.763882 q 3.07407,0 4.995364,-0.48032 2.017358,-0.57639 3.170135,-1.72916 1.248841,-1.24885 1.729164,-3.17014 0.480324,-2.01736 0.480324,-4.80323 v -2.01736 q 0,-2.689814 -0.480324,-4.515044 -0.384258,-1.825229 -1.537035,-3.07407 -1.056711,-1.248841 -2.978005,-2.017359 -1.921294,-0.768517 -4.8993,-1.248841 l -6.916658,-1.056711 q -5.187494,-0.864583 -8.645823,-2.209488 -3.458329,-1.344906 -5.571752,-3.45833 -2.017359,-2.113423 -2.881941,-5.187493 -0.864583,-3.07407 -0.864583,-7.396982 v -2.017358 q 0,-4.130782 0.768518,-7.300917 0.864582,-3.170135 2.978006,-5.283559 2.113423,-2.209488 5.667817,-3.2662 3.650458,-1.152776 9.222211,-1.152776 z m 53.714618,0.09607 h 5.76388 q 5.57175,0 9.12615,1.152776 3.65046,1.056712 5.76388,3.2662 2.11342,2.113423 2.97801,5.283558 0.86458,3.170135 0.86458,7.300917 v 34.391162 q 0,4.13078 -0.86458,7.30092 -0.86459,3.17013 -2.97801,5.37962 -2.11342,2.11342 -5.76388,3.2662 -3.5544,1.05671 -9.12615,1.05671 h -5.76388 q -5.57175,0 -9.22221,-1.05671 -3.55439,-1.15278 -5.66782,-3.2662 -2.11342,-2.20949 -2.978,-5.37962 -0.76852,-3.17014 -0.76852,-7.30092 V 69.861348 q 0,-4.130782 0.76852,-7.300917 0.86458,-3.170135 2.978,-5.283558 2.11343,-2.209488 5.66782,-3.2662 3.65046,-1.152776 9.22221,-1.152776 z m 0,7.204852 q -2.97801,0 -4.99536,0.576388 -2.01736,0.480324 -3.2662,1.6331 -1.15278,1.152776 -1.6331,3.170135 -0.48033,1.921294 -0.48033,4.803235 v 33.622643 q 0,2.88194 0.48033,4.8993 0.48032,1.92129 1.6331,3.07407 1.24884,1.15278 3.2662,1.72917 2.01735,0.48032 4.99536,0.48032 h 5.76388 q 3.07407,0 4.99537,-0.48032 2.01735,-0.57639 3.17013,-1.72917 1.24884,-1.15278 1.72917,-3.07407 0.48032,-2.01736 0.48032,-4.8993 V 70.245607 q 0,-2.881941 -0.48032,-4.803235 -0.48033,-2.017359 -1.72917,-3.170135 -1.15278,-1.152776 -3.17013,-1.6331 -1.9213,-0.576388 -4.99537,-0.576388 z m 51.69728,60.616821 h -8.26157 V 53.434285 h 8.26157 l 27.76269,50.049705 V 53.434285 h 8.26157 v 67.245285 h -8.26157 L 177.19505,70.533801 Z m 56.40443,-67.245285 h 8.26157 v 67.245285 h -8.26157 z m 51.60121,67.821675 h -5.76389 q -5.57175,0 -9.22221,-1.05671 -3.55439,-1.15278 -5.66781,-3.2662 -2.11343,-2.20949 -2.97801,-5.37962 -0.76852,-3.17014 -0.76852,-7.30092 V 69.861348 q 0,-4.130782 0.76852,-7.300917 0.86458,-3.170135 2.97801,-5.283558 2.11342,-2.209488 5.66781,-3.2662 3.65046,-1.152776 9.22221,-1.152776 h 5.76389 q 5.57175,0 9.12614,1.152776 3.65046,1.056712 5.76388,3.2662 2.11343,2.113423 2.97801,5.283558 0.86458,3.170135 0.86458,7.300917 v 7.493047 h -8.35763 v -7.108788 q 0,-2.881941 -0.48032,-4.803235 -0.48032,-2.017359 -1.72917,-3.170135 -1.15277,-1.152776 -3.17013,-1.6331 -1.92129,-0.576388 -4.99536,-0.576388 h -5.76389 q -2.978,0 -4.99536,0.576388 -2.01736,0.480324 -3.2662,1.6331 -1.15278,1.152776 -1.6331,3.170135 -0.48032,1.921294 -0.48032,4.803235 v 33.622643 q 0,2.88194 0.48032,4.8993 0.48032,1.92129 1.6331,3.07407 1.24884,1.15278 3.2662,1.72917 2.01736,0.48032 4.99536,0.48032 h 5.76389 q 3.07407,0 4.99536,-0.48032 2.01736,-0.57639 3.17013,-1.72917 1.24885,-1.15278 1.72917,-3.07407 0.48032,-2.01736 0.48032,-4.8993 v -7.108787 h 8.35763 v 7.493047 q 0,4.13078 -0.86458,7.30092 -0.86458,3.17013 -2.97801,5.37962 -2.11342,2.11342 -5.76388,3.2662 -3.55439,1.05671 -9.12614,1.05671 z m 79.17185,-0.57639 -5.95601,-18.63655 H 333.7279 l -5.95601,18.63655 h -8.54976 l 21.5185,-67.245285 h 10.66318 L 372.9223,120.67957 Z M 335.84133,94.838169 h 20.46178 L 346.02418,62.848625 Z m 62.64872,18.636551 h 27.95482 v 7.20485 H 390.22848 V 53.434285 h 8.26157 z"/>
</svg>
